<svg width="419" height="358" viewBox="0 0 419 358" fill="none" xmlns="http://www.w3.org/2000/svg">
<path d="M266.898 331.677L299.986 322.505L290.819 289.433L257.731 298.605L248.564 265.533L281.652 256.362L272.485 223.29L239.397 232.461L206.309 241.633L197.142 208.561L230.23 199.389L221.063 166.317L187.975 175.489L197.142 208.561L164.054 217.732L130.966 226.904L121.799 193.832L88.7108 203.003L55.6227 212.175L64.7897 245.247L73.9567 278.318L40.8686 287.49L31.7016 254.418L16.9393 258.51L1.49656 35.6899C1.49656 35.6899 23.4178 3.04098 82.3162 0.960448C170.537 -2.12506 213.836 45.3191 286.845 61.5168C332.729 71.81 342.908 51.1822 342.908 51.1822L372.679 242.636C372.679 242.636 449.471 226.008 493.319 277.409C519.34 308.001 480.228 339.936 439.759 351.153C397.508 362.864 347.536 355.622 267.533 333.966L266.898 331.677Z" fill="white" stroke="#FF6B00" stroke-width="1.22338" stroke-miterlimit="10"/>
</svg>
